<svg width="344" height="160" viewBox="0 0 344 160" fill="none" xmlns="http://www.w3.org/2000/svg">
<g filter="url(#filter0_f_5226_66493)">
<path d="M30.8599 118.006V108.727H70.8155V118.006H56.4813V156H45.2171V118.006H30.8599ZM76.3956 156V108.727H95.9233C99.4626 108.727 102.517 109.366 105.087 110.643C107.672 111.905 109.665 113.721 111.065 116.091C112.466 118.445 113.166 121.238 113.166 124.469C113.166 127.747 112.45 130.532 111.019 132.825C109.588 135.103 107.557 136.842 104.925 138.042C102.294 139.227 99.178 139.819 95.5771 139.819H83.228V130.817H93.4535C95.177 130.817 96.6158 130.594 97.7699 130.148C98.9394 129.686 99.8243 128.994 100.424 128.07C101.025 127.132 101.325 125.931 101.325 124.469C101.325 123.008 101.025 121.8 100.424 120.846C99.8243 119.876 98.9394 119.153 97.7699 118.676C96.6004 118.183 95.1616 117.937 93.4535 117.937H87.8214V156H76.3956ZM103.01 134.395L114.782 156H102.317L90.776 134.395H103.01ZM129.658 156H117.378L133.328 108.727H148.54L164.49 156H152.21L141.107 120.638H140.738L129.658 156ZM128.019 137.396H153.687V146.075H128.019V137.396ZM181.005 108.727V156H169.579V108.727H181.005ZM228.41 108.727V156H218.716L199.904 128.717H199.604V156H188.178V108.727H198.011L216.615 135.964H217.008V108.727H228.41ZM235.595 156V108.727H268.557V118.006H247.021V127.701H266.871V137.003H247.021V146.721H268.557V156H235.595ZM275.712 156V108.727H295.24C298.779 108.727 301.834 109.366 304.403 110.643C306.989 111.905 308.981 113.721 310.382 116.091C311.782 118.445 312.482 121.238 312.482 124.469C312.482 127.747 311.767 130.532 310.336 132.825C308.905 135.103 306.873 136.842 304.242 138.042C301.61 139.227 298.494 139.819 294.894 139.819H282.544V130.817H292.77C294.493 130.817 295.932 130.594 297.086 130.148C298.256 129.686 299.141 128.994 299.741 128.07C300.341 127.132 300.641 125.931 300.641 124.469C300.641 123.008 300.341 121.8 299.741 120.846C299.141 119.876 298.256 119.153 297.086 118.676C295.917 118.183 294.478 117.937 292.77 117.937H287.138V156H275.712ZM302.326 134.395L314.098 156H301.634L290.092 134.395H302.326Z" fill="white"/>
<path d="M30.8599 118.006H30.3599V118.506H30.8599V118.006ZM30.8599 108.727V108.227H30.3599V108.727H30.8599ZM70.8155 108.727H71.3155V108.227H70.8155V108.727ZM70.8155 118.006V118.506H71.3155V118.006H70.8155ZM56.4813 118.006V117.506H55.9813V118.006H56.4813ZM56.4813 156V156.5H56.9813V156H56.4813ZM45.2171 156H44.7171V156.5H45.2171V156ZM45.2171 118.006H45.7171V117.506H45.2171V118.006ZM31.3599 118.006V108.727H30.3599V118.006H31.3599ZM30.8599 109.227H70.8155V108.227H30.8599V109.227ZM70.3155 108.727V118.006H71.3155V108.727H70.3155ZM70.8155 117.506H56.4813V118.506H70.8155V117.506ZM55.9813 118.006V156H56.9813V118.006H55.9813ZM56.4813 155.5H45.2171V156.5H56.4813V155.5ZM45.7171 156V118.006H44.7171V156H45.7171ZM45.2171 117.506H30.8599V118.506H45.2171V117.506ZM76.3956 156H75.8956V156.5H76.3956V156ZM76.3956 108.727V108.227H75.8956V108.727H76.3956ZM105.087 110.643L104.865 111.091L104.868 111.092L105.087 110.643ZM111.065 116.091L110.635 116.345L110.636 116.346L111.065 116.091ZM111.019 132.825L111.443 133.091L111.443 133.09L111.019 132.825ZM104.925 138.042L105.131 138.498L105.133 138.497L104.925 138.042ZM83.228 139.819H82.728V140.319H83.228V139.819ZM83.228 130.817V130.317H82.728V130.817H83.228ZM97.7699 130.148L97.9503 130.614L97.9535 130.613L97.7699 130.148ZM100.424 128.07L100.844 128.343L100.846 128.34L100.424 128.07ZM100.424 120.846L99.9993 121.109L100.001 121.112L100.424 120.846ZM97.7699 118.676L97.5759 119.137L97.5811 119.139L97.7699 118.676ZM87.8214 117.937V117.437H87.3214V117.937H87.8214ZM87.8214 156V156.5H88.3214V156H87.8214ZM103.01 134.395L103.449 134.156L103.307 133.895H103.01V134.395ZM114.782 156V156.5H115.623L115.221 155.761L114.782 156ZM102.317 156L101.876 156.236L102.017 156.5H102.317V156ZM90.776 134.395V133.895H89.942L90.3349 134.63L90.776 134.395ZM76.8956 156V108.727H75.8956V156H76.8956ZM76.3956 109.227H95.9233V108.227H76.3956V109.227ZM95.9233 109.227C99.4031 109.227 102.378 109.855 104.865 111.091L105.31 110.195C102.656 108.877 99.5222 108.227 95.9233 108.227V109.227ZM104.868 111.092C107.369 112.313 109.287 114.063 110.635 116.345L111.496 115.836C110.043 113.378 107.975 111.496 105.306 110.194L104.868 111.092ZM110.636 116.346C111.982 118.61 112.666 121.312 112.666 124.469H113.666C113.666 121.164 112.949 118.28 111.495 115.835L110.636 116.346ZM112.666 124.469C112.666 127.674 111.967 130.363 110.595 132.561L111.443 133.09C112.934 130.702 113.666 127.821 113.666 124.469H112.666ZM110.596 132.559C109.221 134.748 107.268 136.424 104.718 137.587L105.133 138.497C107.846 137.259 109.956 135.458 111.443 133.091L110.596 132.559ZM104.72 137.586C102.167 138.736 99.1242 139.319 95.5771 139.319V140.319C99.2317 140.319 102.421 139.718 105.131 138.498L104.72 137.586ZM95.5771 139.319H83.228V140.319H95.5771V139.319ZM83.728 139.819V130.817H82.728V139.819H83.728ZM83.228 131.317H93.4535V130.317H83.228V131.317ZM93.4535 131.317C95.2162 131.317 96.7208 131.089 97.9503 130.614L97.5896 129.681C96.5108 130.099 95.1378 130.317 93.4535 130.317V131.317ZM97.9535 130.613C99.2055 130.119 100.179 129.365 100.844 128.343L100.005 127.798C99.4695 128.622 98.6734 129.254 97.5863 129.683L97.9535 130.613ZM100.846 128.34C101.511 127.299 101.825 125.998 101.825 124.469H100.825C100.825 125.865 100.538 126.964 100.003 127.801L100.846 128.34ZM101.825 124.469C101.825 122.941 101.511 121.634 100.848 120.579L100.001 121.112C100.538 121.966 100.825 123.074 100.825 124.469H101.825ZM100.85 120.582C100.188 119.513 99.2151 118.725 97.9588 118.213L97.5811 119.139C98.6638 119.58 99.4608 120.239 99.9993 121.109L100.85 120.582ZM97.964 118.215C96.7157 117.689 95.2065 117.437 93.4535 117.437V118.437C95.1167 118.437 96.4851 118.677 97.5759 119.137L97.964 118.215ZM93.4535 117.437H87.8214V118.437H93.4535V117.437ZM87.3214 117.937V156H88.3214V117.937H87.3214ZM87.8214 155.5H76.3956V156.5H87.8214V155.5ZM102.571 134.634L114.343 156.239L115.221 155.761L103.449 134.156L102.571 134.634ZM114.782 155.5H102.317V156.5H114.782V155.5ZM102.758 155.764L91.217 134.159L90.3349 134.63L101.876 156.236L102.758 155.764ZM90.776 134.895H103.01V133.895H90.776V134.895ZM129.658 156V156.5H130.026L130.135 156.149L129.658 156ZM117.378 156L116.905 155.84L116.682 156.5H117.378V156ZM133.328 108.727V108.227H132.969L132.855 108.567L133.328 108.727ZM148.54 108.727L149.013 108.567L148.899 108.227H148.54V108.727ZM164.49 156V156.5H165.186L164.963 155.84L164.49 156ZM152.21 156L151.733 156.15L151.843 156.5H152.21V156ZM141.107 120.638L141.584 120.488L141.474 120.138H141.107V120.638ZM140.738 120.638V120.138H140.37L140.261 120.488L140.738 120.638ZM128.019 137.396V136.896H127.519V137.396H128.019ZM153.687 137.396H154.187V136.896H153.687V137.396ZM153.687 146.075V146.575H154.187V146.075H153.687ZM128.019 146.075H127.519V146.575H128.019V146.075ZM129.658 155.5H117.378V156.5H129.658V155.5ZM117.852 156.16L133.802 108.887L132.855 108.567L116.905 155.84L117.852 156.16ZM133.328 109.227H148.54V108.227H133.328V109.227ZM148.066 108.887L164.016 156.16L164.963 155.84L149.013 108.567L148.066 108.887ZM164.49 155.5H152.21V156.5H164.49V155.5ZM152.687 155.85L141.584 120.488L140.63 120.788L151.733 156.15L152.687 155.85ZM141.107 120.138H140.738V121.138H141.107V120.138ZM140.261 120.488L129.181 155.851L130.135 156.149L141.215 120.787L140.261 120.488ZM128.019 137.896H153.687V136.896H128.019V137.896ZM153.187 137.396V146.075H154.187V137.396H153.187ZM153.687 145.575H128.019V146.575H153.687V145.575ZM128.519 146.075V137.396H127.519V146.075H128.519ZM181.005 108.727H181.505V108.227H181.005V108.727ZM181.005 156V156.5H181.505V156H181.005ZM169.579 156H169.079V156.5H169.579V156ZM169.579 108.727V108.227H169.079V108.727H169.579ZM180.505 108.727V156H181.505V108.727H180.505ZM181.005 155.5H169.579V156.5H181.005V155.5ZM170.079 156V108.727H169.079V156H170.079ZM169.579 109.227H181.005V108.227H169.579V109.227ZM228.41 108.727H228.91V108.227H228.41V108.727ZM228.41 156V156.5H228.91V156H228.41ZM218.716 156L218.304 156.284L218.453 156.5H218.716V156ZM199.904 128.717L200.315 128.433L200.166 128.217H199.904V128.717ZM199.604 128.717V128.217H199.104V128.717H199.604ZM199.604 156V156.5H200.104V156H199.604ZM188.178 156H187.678V156.5H188.178V156ZM188.178 108.727V108.227H187.678V108.727H188.178ZM198.011 108.727L198.424 108.445L198.275 108.227H198.011V108.727ZM216.615 135.964L216.202 136.247L216.351 136.464H216.615V135.964ZM217.008 135.964V136.464H217.508V135.964H217.008ZM217.008 108.727V108.227H216.508V108.727H217.008ZM227.91 108.727V156H228.91V108.727H227.91ZM228.41 155.5H218.716V156.5H228.41V155.5ZM219.128 155.716L200.315 128.433L199.492 129L218.304 156.284L219.128 155.716ZM199.904 128.217H199.604V129.217H199.904V128.217ZM199.104 128.717V156H200.104V128.717H199.104ZM199.604 155.5H188.178V156.5H199.604V155.5ZM188.678 156V108.727H187.678V156H188.678ZM188.178 109.227H198.011V108.227H188.178V109.227ZM197.598 109.009L216.202 136.247L217.028 135.682L198.424 108.445L197.598 109.009ZM216.615 136.464H217.008V135.464H216.615V136.464ZM217.508 135.964V108.727H216.508V135.964H217.508ZM217.008 109.227H228.41V108.227H217.008V109.227ZM235.595 156H235.095V156.5H235.595V156ZM235.595 108.727V108.227H235.095V108.727H235.595ZM268.557 108.727H269.057V108.227H268.557V108.727ZM268.557 118.006V118.506H269.057V118.006H268.557ZM247.021 118.006V117.506H246.521V118.006H247.021ZM247.021 127.701H246.521V128.201H247.021V127.701ZM266.871 127.701H267.371V127.201H266.871V127.701ZM266.871 137.003V137.503H267.371V137.003H266.871ZM247.021 137.003V136.503H246.521V137.003H247.021ZM247.021 146.721H246.521V147.221H247.021V146.721ZM268.557 146.721H269.057V146.221H268.557V146.721ZM268.557 156V156.5H269.057V156H268.557ZM236.095 156V108.727H235.095V156H236.095ZM235.595 109.227H268.557V108.227H235.595V109.227ZM268.057 108.727V118.006H269.057V108.727H268.057ZM268.557 117.506H247.021V118.506H268.557V117.506ZM246.521 118.006V127.701H247.521V118.006H246.521ZM247.021 128.201H266.871V127.201H247.021V128.201ZM266.371 127.701V137.003H267.371V127.701H266.371ZM266.871 136.503H247.021V137.503H266.871V136.503ZM246.521 137.003V146.721H247.521V137.003H246.521ZM247.021 147.221H268.557V146.221H247.021V147.221ZM268.057 146.721V156H269.057V146.721H268.057ZM268.557 155.5H235.595V156.5H268.557V155.5ZM275.712 156H275.212V156.5H275.712V156ZM275.712 108.727V108.227H275.212V108.727H275.712ZM304.403 110.643L304.181 111.091L304.184 111.092L304.403 110.643ZM310.382 116.091L309.951 116.345L309.952 116.346L310.382 116.091ZM310.336 132.825L310.759 133.091L310.76 133.09L310.336 132.825ZM304.242 138.042L304.447 138.498L304.449 138.497L304.242 138.042ZM282.544 139.819H282.044V140.319H282.544V139.819ZM282.544 130.817V130.317H282.044V130.817H282.544ZM297.086 130.148L297.267 130.614L297.27 130.613L297.086 130.148ZM299.741 128.07L300.16 128.343L300.162 128.34L299.741 128.07ZM299.741 120.846L299.316 121.109L299.318 121.112L299.741 120.846ZM297.086 118.676L296.892 119.137L296.897 119.139L297.086 118.676ZM287.138 117.937V117.437H286.638V117.937H287.138ZM287.138 156V156.5H287.638V156H287.138ZM302.326 134.395L302.765 134.156L302.623 133.895H302.326V134.395ZM314.098 156V156.5H314.94L314.537 155.761L314.098 156ZM301.634 156L301.193 156.236L301.334 156.5H301.634V156ZM290.092 134.395V133.895H289.258L289.651 134.63L290.092 134.395ZM276.212 156V108.727H275.212V156H276.212ZM275.712 109.227H295.24V108.227H275.712V109.227ZM295.24 109.227C298.72 109.227 301.694 109.855 304.181 111.091L304.626 110.195C301.973 108.877 298.839 108.227 295.24 108.227V109.227ZM304.184 111.092C306.686 112.313 308.603 114.063 309.951 116.345L310.812 115.836C309.36 113.378 307.292 111.496 304.623 110.194L304.184 111.092ZM309.952 116.346C311.299 118.61 311.982 121.312 311.982 124.469H312.982C312.982 121.164 312.266 118.28 310.812 115.835L309.952 116.346ZM311.982 124.469C311.982 127.674 311.283 130.363 309.911 132.561L310.76 133.09C312.25 130.702 312.982 127.821 312.982 124.469H311.982ZM309.912 132.559C308.537 134.748 306.584 136.424 304.034 137.587L304.449 138.497C307.163 137.259 309.272 135.458 310.759 133.091L309.912 132.559ZM304.037 137.586C301.484 138.736 298.441 139.319 294.894 139.319V140.319C298.548 140.319 301.737 139.718 304.447 138.498L304.037 137.586ZM294.894 139.319H282.544V140.319H294.894V139.319ZM283.044 139.819V130.817H282.044V139.819H283.044ZM282.544 131.317H292.77V130.317H282.544V131.317ZM292.77 131.317C294.533 131.317 296.037 131.089 297.267 130.614L296.906 129.681C295.827 130.099 294.454 130.317 292.77 130.317V131.317ZM297.27 130.613C298.522 130.119 299.495 129.365 300.16 128.343L299.322 127.798C298.786 128.622 297.99 129.254 296.903 129.683L297.27 130.613ZM300.162 128.34C300.827 127.299 301.141 125.998 301.141 124.469H300.141C300.141 125.865 299.855 126.964 299.32 127.801L300.162 128.34ZM301.141 124.469C301.141 122.941 300.827 121.634 300.164 120.579L299.318 121.112C299.855 121.966 300.141 123.074 300.141 124.469H301.141ZM300.166 120.582C299.504 119.513 298.532 118.725 297.275 118.213L296.897 119.139C297.98 119.58 298.777 120.239 299.316 121.109L300.166 120.582ZM297.28 118.215C296.032 117.689 294.523 117.437 292.77 117.437V118.437C294.433 118.437 295.802 118.677 296.892 119.137L297.28 118.215ZM292.77 117.437H287.138V118.437H292.77V117.437ZM286.638 117.937V156H287.638V117.937H286.638ZM287.138 155.5H275.712V156.5H287.138V155.5ZM301.887 134.634L313.659 156.239L314.537 155.761L302.765 134.156L301.887 134.634ZM314.098 155.5H301.634V156.5H314.098V155.5ZM302.075 155.764L290.533 134.159L289.651 134.63L301.193 156.236L302.075 155.764ZM290.092 134.895H302.326V133.895H290.092V134.895Z" fill="white"/>
</g>
<path d="M33.0312 117.591V108.455H72.3722V117.591H58.2585V155H47.1676V117.591H33.0312ZM77.8665 155V108.455H97.0938C100.579 108.455 103.586 109.083 106.116 110.341C108.662 111.583 110.624 113.371 112.003 115.705C113.382 118.023 114.071 120.773 114.071 123.955C114.071 127.182 113.366 129.924 111.957 132.182C110.548 134.424 108.548 136.136 105.957 137.318C103.366 138.485 100.298 139.068 96.7528 139.068H84.5938V130.205H94.6619C96.3589 130.205 97.7756 129.985 98.9119 129.545C100.063 129.091 100.935 128.409 101.526 127.5C102.116 126.576 102.412 125.394 102.412 123.955C102.412 122.515 102.116 121.326 101.526 120.386C100.935 119.432 100.063 118.72 98.9119 118.25C97.7604 117.765 96.3438 117.523 94.6619 117.523H89.1165V155H77.8665ZM104.071 133.727L115.662 155H103.389L92.0256 133.727H104.071ZM130.31 155H118.219L133.923 108.455H148.901L164.605 155H152.514L141.582 120.182H141.219L130.31 155ZM128.696 136.682H153.969V145.227H128.696V136.682ZM180.866 108.455V155H169.616V108.455H180.866ZM227.543 108.455V155H217.997L199.474 128.136H199.179V155H187.929V108.455H197.611L215.929 135.273H216.315V108.455H227.543ZM234.616 155V108.455H267.071V117.591H245.866V127.136H265.412V136.295H245.866V145.864H267.071V155H234.616ZM274.116 155V108.455H293.344C296.829 108.455 299.836 109.083 302.366 110.341C304.912 111.583 306.874 113.371 308.253 115.705C309.632 118.023 310.321 120.773 310.321 123.955C310.321 127.182 309.616 129.924 308.207 132.182C306.798 134.424 304.798 136.136 302.207 137.318C299.616 138.485 296.548 139.068 293.003 139.068H280.844V130.205H290.912C292.609 130.205 294.026 129.985 295.162 129.545C296.313 129.091 297.185 128.409 297.776 127.5C298.366 126.576 298.662 125.394 298.662 123.955C298.662 122.515 298.366 121.326 297.776 120.386C297.185 119.432 296.313 118.72 295.162 118.25C294.01 117.765 292.594 117.523 290.912 117.523H285.366V155H274.116ZM300.321 133.727L311.912 155H299.639L288.276 133.727H300.321Z" fill="white"/>
<g filter="url(#filter1_f_5226_66493)">
<path fill-rule="evenodd" clip-rule="evenodd" d="M231.352 16.823C233.016 18.6932 234.201 20.9388 234.807 23.3675C236.52 29.8892 238.562 41.8786 238.562 61.7072C238.562 81.5358 236.52 93.5252 234.807 100.047C234.201 102.476 233.016 104.721 231.352 106.591C229.689 108.461 227.596 109.9 225.255 110.785C203.648 119.151 170.249 119.414 165.703 119.414H164.781C160.235 119.414 125.914 119.151 104.307 110.785C101.965 109.9 99.873 108.461 98.2094 106.591C96.5458 104.721 95.3604 102.476 94.7549 100.047C93.0421 93.5252 91 81.5358 91 61.7072C91 41.8786 93.0421 29.8892 94.7549 23.3675C95.3604 20.9388 96.5458 18.6932 98.2094 16.823C99.873 14.9529 101.965 13.514 104.307 12.6297C126.685 3.99239 162.323 3.99953 164.737 4.00001L164.781 4.00001L164.825 4.00001C167.238 3.99953 202.876 3.99239 225.255 12.6297C227.596 13.514 229.689 14.9529 231.352 16.823ZM215.505 61.7072H219.128C220.089 61.7072 221.011 62.0125 221.69 62.5561C222.37 63.0997 222.752 63.8369 222.752 64.6057C222.752 65.3744 222.37 66.1117 221.69 66.6553C221.011 67.1988 220.089 67.5042 219.128 67.5042H215.505V79.0984C215.505 80.6358 214.742 82.1103 213.383 83.1975C212.024 84.2847 210.181 84.8954 208.259 84.8954H201.013V87.794C201.013 89.3314 200.249 90.8059 198.89 91.8931C197.531 92.9803 195.688 93.591 193.766 93.591H182.897C180.975 93.591 179.132 92.9803 177.773 91.8931C176.414 90.8059 175.65 89.3314 175.65 87.794V67.5042H153.911V87.794C153.911 89.3314 153.148 90.8059 151.789 91.8931C150.43 92.9803 148.587 93.591 146.665 93.591H135.796C133.874 93.591 132.031 92.9803 130.672 91.8931C129.313 90.8059 128.549 89.3314 128.549 87.794V84.8954H121.303C119.381 84.8954 117.538 84.2847 116.179 83.1975C114.82 82.1103 114.057 80.6358 114.057 79.0984V67.5042H110.433C109.472 67.5042 108.551 67.1988 107.871 66.6553C107.192 66.1117 106.81 65.3744 106.81 64.6057C106.81 63.8369 107.192 63.0997 107.871 62.5561C108.551 62.0125 109.472 61.7072 110.433 61.7072H114.057V50.113C114.057 48.5755 114.82 47.101 116.179 46.0139C117.538 44.9267 119.381 44.316 121.303 44.316H128.549V41.4174C128.549 39.8799 129.313 38.4054 130.672 37.3183C132.031 36.2311 133.874 35.6204 135.796 35.6204H146.665C148.587 35.6204 150.43 36.2311 151.789 37.3183C153.148 38.4054 153.911 39.8799 153.911 41.4174V61.7072H175.65V41.4174C175.65 39.8799 176.414 38.4054 177.773 37.3183C179.132 36.2311 180.975 35.6204 182.897 35.6204H193.766C195.688 35.6204 197.531 36.2311 198.89 37.3183C200.249 38.4054 201.013 39.8799 201.013 41.4174V44.316H208.259C210.181 44.316 212.024 44.9267 213.383 46.0139C214.742 47.101 215.505 48.5755 215.505 50.113V61.7072ZM128.549 50.113H121.303V79.0984H128.549V50.113ZM201.013 79.0984H208.259V50.113H201.013V79.0984Z" fill="#D32F2F"/>
</g>
<path d="M101.54 90.956V35.6204L225.387 27.7153V90.956L175.321 109.401L101.54 90.956Z" fill="white"/>
<path fill-rule="evenodd" clip-rule="evenodd" d="M231.352 16.823C233.016 18.6932 234.201 20.9388 234.807 23.3675C236.52 29.8892 238.562 41.8786 238.562 61.7072C238.562 81.5358 236.52 93.5252 234.807 100.047C234.201 102.476 233.016 104.721 231.352 106.591C229.689 108.461 227.596 109.9 225.255 110.785C203.648 119.151 170.249 119.414 165.703 119.414H164.781C160.235 119.414 125.914 119.151 104.307 110.785C101.965 109.9 99.873 108.461 98.2094 106.591C96.5458 104.721 95.3604 102.476 94.7549 100.047C93.0421 93.5252 91 81.5358 91 61.7072C91 41.8786 93.0421 29.8892 94.7549 23.3675C95.3604 20.9388 96.5458 18.6932 98.2094 16.823C99.873 14.9529 101.965 13.514 104.307 12.6297C126.685 3.99239 162.323 3.99953 164.737 4.00001L164.781 4.00001L164.825 4.00001C167.238 3.99953 202.876 3.99239 225.255 12.6297C227.596 13.514 229.689 14.9529 231.352 16.823ZM215.505 61.7072H219.128C220.089 61.7072 221.011 62.0125 221.69 62.5561C222.37 63.0997 222.752 63.8369 222.752 64.6057C222.752 65.3744 222.37 66.1117 221.69 66.6553C221.011 67.1988 220.089 67.5042 219.128 67.5042H215.505V79.0984C215.505 80.6358 214.742 82.1103 213.383 83.1975C212.024 84.2847 210.181 84.8954 208.259 84.8954H201.013V87.794C201.013 89.3314 200.249 90.8059 198.89 91.8931C197.531 92.9803 195.688 93.591 193.766 93.591H182.897C180.975 93.591 179.132 92.9803 177.773 91.8931C176.414 90.8059 175.65 89.3314 175.65 87.794V67.5042H153.911V87.794C153.911 89.3314 153.148 90.8059 151.789 91.8931C150.43 92.9803 148.587 93.591 146.665 93.591H135.796C133.874 93.591 132.031 92.9803 130.672 91.8931C129.313 90.8059 128.549 89.3314 128.549 87.794V84.8954H121.303C119.381 84.8954 117.538 84.2847 116.179 83.1975C114.82 82.1103 114.057 80.6358 114.057 79.0984V67.5042H110.433C109.472 67.5042 108.551 67.1988 107.871 66.6553C107.192 66.1117 106.81 65.3744 106.81 64.6057C106.81 63.8369 107.192 63.0997 107.871 62.5561C108.551 62.0125 109.472 61.7072 110.433 61.7072H114.057V50.113C114.057 48.5755 114.82 47.101 116.179 46.0139C117.538 44.9267 119.381 44.316 121.303 44.316H128.549V41.4174C128.549 39.8799 129.313 38.4054 130.672 37.3183C132.031 36.2311 133.874 35.6204 135.796 35.6204H146.665C148.587 35.6204 150.43 36.2311 151.789 37.3183C153.148 38.4054 153.911 39.8799 153.911 41.4174V61.7072H175.65V41.4174C175.65 39.8799 176.414 38.4054 177.773 37.3183C179.132 36.2311 180.975 35.6204 182.897 35.6204H193.766C195.688 35.6204 197.531 36.2311 198.89 37.3183C200.249 38.4054 201.013 39.8799 201.013 41.4174V44.316H208.259C210.181 44.316 212.024 44.9267 213.383 46.0139C214.742 47.101 215.505 48.5755 215.505 50.113V61.7072ZM128.549 50.113H121.303V79.0984H128.549V50.113ZM201.013 79.0984H208.259V50.113H201.013V79.0984Z" fill="#D32F2F"/>
<path d="M17.8636 114.818C17.0909 114.818 16.4034 114.756 15.8011 114.631C15.1989 114.517 14.75 114.392 14.4545 114.256L16.3977 110.08C17.2955 110.33 18.0966 110.426 18.8011 110.369C19.517 110.313 20.1875 110.017 20.8125 109.483C21.4375 108.949 22.0739 108.108 22.7216 106.96L23.6761 105.239L18.5455 78.8182H23.7955L27.0341 99.1875H27.3068L37.3295 78.8182H43.0057L27.3068 108.46C26.5682 109.869 25.7273 111.04 24.7841 111.972C23.8523 112.915 22.8068 113.625 21.6477 114.102C20.5 114.58 19.2386 114.818 17.8636 114.818ZM53.6889 105.528C51.2003 105.528 49.1207 104.96 47.4503 103.824C45.7798 102.676 44.6037 101.074 43.9219 99.017C43.2514 96.9489 43.1378 94.5455 43.581 91.8068C44.0128 89.125 44.8821 86.7841 46.1889 84.7841C47.5071 82.7841 49.1548 81.233 51.1321 80.1307C53.1207 79.0284 55.331 78.4773 57.7628 78.4773C60.2514 78.4773 62.3253 79.0511 63.9844 80.1989C65.6548 81.3466 66.831 82.9545 67.5128 85.0227C68.1946 87.0909 68.3139 89.5 67.8707 92.25C67.4389 94.9091 66.5582 97.2386 65.2287 99.2386C63.9105 101.227 62.2628 102.773 60.2855 103.875C58.3082 104.977 56.1094 105.528 53.6889 105.528ZM53.9787 101.25C55.6151 101.25 57.0412 100.818 58.2571 99.9545C59.4844 99.0909 60.4844 97.9432 61.2571 96.5114C62.0298 95.0795 62.5582 93.5114 62.8423 91.8068C63.1037 90.1591 63.098 88.6534 62.8253 87.2898C62.5639 85.9148 61.9957 84.8125 61.1207 83.983C60.2457 83.1534 59.0298 82.7386 57.473 82.7386C55.8366 82.7386 54.3991 83.1761 53.1605 84.0511C51.9332 84.9148 50.9332 86.0682 50.1605 87.5114C49.3991 88.9545 48.8821 90.5284 48.6094 92.233C48.348 93.8693 48.348 95.375 48.6094 96.75C48.8707 98.1136 49.4389 99.2045 50.3139 100.023C51.1889 100.841 52.4105 101.25 53.9787 101.25ZM89.8551 94.142L92.4119 78.8182H97.5256L93.1619 105H88.1506L88.9176 100.466H88.6449C87.8267 101.864 86.6676 103.028 85.1676 103.96C83.679 104.881 81.9517 105.341 79.9858 105.341C78.304 105.341 76.8778 104.972 75.7074 104.233C74.5483 103.483 73.7244 102.375 73.2358 100.909C72.7472 99.4432 72.679 97.6307 73.0312 95.4716L75.8267 78.8182H80.9233L78.2472 94.858C77.9631 96.642 78.2301 98.0625 79.0483 99.1193C79.8665 100.176 81.0597 100.705 82.6278 100.705C83.5824 100.705 84.571 100.466 85.5938 99.9886C86.6165 99.5114 87.5199 98.7898 88.304 97.8239C89.0994 96.858 89.6165 95.6307 89.8551 94.142Z" fill="white"/>
<defs>
<filter id="filter0_f_5226_66493" x="26.8599" y="104.727" width="291.238" height="55.2727" filterUnits="userSpaceOnUse" color-interpolation-filters="sRGB">
<feFlood flood-opacity="0" result="BackgroundImageFix"/>
<feBlend mode="normal" in="SourceGraphic" in2="BackgroundImageFix" result="shape"/>
<feGaussianBlur stdDeviation="2" result="effect1_foregroundBlur_5226_66493"/>
</filter>
<filter id="filter1_f_5226_66493" x="87" y="0" width="155.562" height="123.414" filterUnits="userSpaceOnUse" color-interpolation-filters="sRGB">
<feFlood flood-opacity="0" result="BackgroundImageFix"/>
<feBlend mode="normal" in="SourceGraphic" in2="BackgroundImageFix" result="shape"/>
<feGaussianBlur stdDeviation="2" result="effect1_foregroundBlur_5226_66493"/>
</filter>
</defs>
</svg>
