<svg width="344" height="81" viewBox="0 0 344 81" fill="none" xmlns="http://www.w3.org/2000/svg">
<path d="M33.0312 42.5909V33.4545H72.3722V42.5909H58.2585V80H47.1676V42.5909H33.0312ZM77.8665 80V33.4545H97.0938C100.579 33.4545 103.586 34.0833 106.116 35.3409C108.662 36.5833 110.624 38.3712 112.003 40.7045C113.382 43.0227 114.071 45.7727 114.071 48.9545C114.071 52.1818 113.366 54.9242 111.957 57.1818C110.548 59.4242 108.548 61.1364 105.957 62.3182C103.366 63.4848 100.298 64.0682 96.7528 64.0682H84.5938V55.2045H94.6619C96.3589 55.2045 97.7756 54.9848 98.9119 54.5455C100.063 54.0909 100.935 53.4091 101.526 52.5C102.116 51.5758 102.412 50.3939 102.412 48.9545C102.412 47.5151 102.116 46.3258 101.526 45.3864C100.935 44.4318 100.063 43.7197 98.9119 43.25C97.7604 42.7652 96.3438 42.5227 94.6619 42.5227H89.1165V80H77.8665ZM104.071 58.7273L115.662 80H103.389L92.0256 58.7273H104.071ZM130.31 80H118.219L133.923 33.4545H148.901L164.605 80H152.514L141.582 45.1818H141.219L130.31 80ZM128.696 61.6818H153.969V70.2273H128.696V61.6818ZM180.866 33.4545V80H169.616V33.4545H180.866ZM227.543 33.4545V80H217.997L199.474 53.1364H199.179V80H187.929V33.4545H197.611L215.929 60.2727H216.315V33.4545H227.543ZM234.616 80V33.4545H267.071V42.5909H245.866V52.1364H265.412V61.2955H245.866V70.8636H267.071V80H234.616ZM274.116 80V33.4545H293.344C296.829 33.4545 299.836 34.0833 302.366 35.3409C304.912 36.5833 306.874 38.3712 308.253 40.7045C309.632 43.0227 310.321 45.7727 310.321 48.9545C310.321 52.1818 309.616 54.9242 308.207 57.1818C306.798 59.4242 304.798 61.1364 302.207 62.3182C299.616 63.4848 296.548 64.0682 293.003 64.0682H280.844V55.2045H290.912C292.609 55.2045 294.026 54.9848 295.162 54.5455C296.313 54.0909 297.185 53.4091 297.776 52.5C298.366 51.5758 298.662 50.3939 298.662 48.9545C298.662 47.5151 298.366 46.3258 297.776 45.3864C297.185 44.4318 296.313 43.7197 295.162 43.25C294.01 42.7652 292.594 42.5227 290.912 42.5227H285.366V80H274.116ZM300.321 58.7273L311.912 80H299.639L288.276 58.7273H300.321Z" fill="white"/>
<path d="M17.8636 39.8182C17.0909 39.8182 16.4034 39.7557 15.8011 39.6307C15.1989 39.517 14.75 39.392 14.4545 39.2557L16.3977 35.0795C17.2955 35.3295 18.0966 35.4261 18.8011 35.3693C19.517 35.3125 20.1875 35.017 20.8125 34.483C21.4375 33.9489 22.0739 33.108 22.7216 31.9602L23.6761 30.2386L18.5455 3.81818H23.7955L27.0341 24.1875H27.3068L37.3295 3.81818H43.0057L27.3068 33.4602C26.5682 34.8693 25.7273 36.0398 24.7841 36.9716C23.8523 37.9148 22.8068 38.625 21.6477 39.1023C20.5 39.5795 19.2386 39.8182 17.8636 39.8182ZM53.6889 30.5284C51.2003 30.5284 49.1207 29.9602 47.4503 28.8239C45.7798 27.6761 44.6037 26.0739 43.9219 24.017C43.2514 21.9489 43.1378 19.5455 43.581 16.8068C44.0128 14.125 44.8821 11.7841 46.1889 9.78409C47.5071 7.78409 49.1548 6.23295 51.1321 5.13068C53.1207 4.02841 55.331 3.47727 57.7628 3.47727C60.2514 3.47727 62.3253 4.05114 63.9844 5.19886C65.6548 6.34659 66.831 7.95455 67.5128 10.0227C68.1946 12.0909 68.3139 14.5 67.8707 17.25C67.4389 19.9091 66.5582 22.2386 65.2287 24.2386C63.9105 26.2273 62.2628 27.7727 60.2855 28.875C58.3082 29.9773 56.1094 30.5284 53.6889 30.5284ZM53.9787 26.25C55.6151 26.25 57.0412 25.8182 58.2571 24.9545C59.4844 24.0909 60.4844 22.9432 61.2571 21.5114C62.0298 20.0795 62.5582 18.5114 62.8423 16.8068C63.1037 15.1591 63.098 13.6534 62.8253 12.2898C62.5639 10.9148 61.9957 9.8125 61.1207 8.98295C60.2457 8.15341 59.0298 7.73864 57.473 7.73864C55.8366 7.73864 54.3991 8.17614 53.1605 9.05114C51.9332 9.91477 50.9332 11.0682 50.1605 12.5114C49.3991 13.9545 48.8821 15.5284 48.6094 17.233C48.348 18.8693 48.348 20.375 48.6094 21.75C48.8707 23.1136 49.4389 24.2045 50.3139 25.0227C51.1889 25.8409 52.4105 26.25 53.9787 26.25ZM89.8551 19.142L92.4119 3.81818H97.5256L93.1619 30H88.1506L88.9176 25.4659H88.6449C87.8267 26.8636 86.6676 28.0284 85.1676 28.9602C83.679 29.8807 81.9517 30.3409 79.9858 30.3409C78.304 30.3409 76.8778 29.9716 75.7074 29.233C74.5483 28.483 73.7244 27.375 73.2358 25.9091C72.7472 24.4432 72.679 22.6307 73.0312 20.4716L75.8267 3.81818H80.9233L78.2472 19.858C77.9631 21.642 78.2301 23.0625 79.0483 24.1193C79.8665 25.1761 81.0597 25.7045 82.6278 25.7045C83.5824 25.7045 84.571 25.4659 85.5938 24.9886C86.6165 24.5114 87.5199 23.7898 88.304 22.8239C89.0994 21.858 89.6165 20.6307 89.8551 19.142Z" fill="white"/>
</svg>
